<?xml version="1.0" encoding="UTF-8" standalone="no"?>
<svg
    xmlns:cc="http://creativecommons.org/ns#"
    xmlns:rdf="http://www.w3.org/1999/02/22-rdf-syntax-ns#"
    xmlns:svg="http://www.w3.org/2000/svg"
    xmlns="http://www.w3.org/2000/svg"
    xmlns:xlink="http://www.w3.org/1999/xlink"
    width="132"
    height="132"
    class="diamond-logo" >
    <circle
        cx="66"
        cy="66"
        r="65"
        style="fill:none;stroke:#c3c3bd;stroke-width:2px" />
    <g transform="translate(2.5,37.5)">
        <polygon
            points="63.5,76 126,21 97,1 30,1 1,21"
            style="fill:none;stroke:#b3b3ad;stroke-width:1px;stroke-linecap:butt" />
        <path
            d="M 125.5,21 1.5,21"
            style="fill:none;stroke:#b3b3ad;stroke-width:1px;stroke-linecap:butt" />
        <path
            d="M 63.5,21 38,1"
            style="fill:none;stroke:#b3b3ad;stroke-width:1px;stroke-linecap:butt" />
        <path
            d="M 89,1 63.5,21"
            style="fill:none;stroke:#b3b3ad;stroke-width:1px;stroke-linecap:butt" />
        <path
            d="M 63.5,1 20,21 l 0,0"
            style="fill:none;stroke:#b3b3ad;stroke-width:1px;stroke-linecap:butt" />
        <path
            d="M 63.5,1 107,21"
            style="fill:none;stroke:#b3b3ad;stroke-width:1px;stroke-linecap:butt" />
        <path
            d="M 20,21 20,8 38,1"
            style="fill:none;stroke:#b3b3ad;stroke-width:1px;stroke-linecap:butt" />
        <path
            d="M 20,8 9,21"
            style="fill:none;stroke:#b3b3ad;stroke-width:1px;stroke-linecap:butt" />
        <path
            d="M 41,21 48,8"
            style="fill:none;stroke:#b3b3ad;stroke-width:1px;stroke-linecap:butt" />
        <path
            d="M 86,21 79,8"
            style="fill:none;stroke:#b3b3ad;stroke-width:1px;stroke-linecap:butt" />
        <path
            d="M 107,21 107,8 89,1"
            style="fill:none;stroke:#b3b3ad;stroke-width:1px;stroke-linecap:butt" />
        <path
            d="M 118,21 107,8"
            style="fill:none;stroke:#b3b3ad;stroke-width:1px;stroke-linecap:butt" />
        <path
            d="M 9,21 45.3,60"
            style="fill:none;stroke:#b3b3ad;stroke-width:1px;stroke-linecap:butt" />
        <path
            d="M 57,60 20,21"
            style="fill:none;stroke:#b3b3ad;stroke-width:1px;stroke-linecap:butt" />
        <path
            d="M 41,21 63.5,76"
            style="fill:none;stroke:#b3b3ad;stroke-width:1px;stroke-linecap:butt" />
        <path
            d="M 63.5,76 86,21"
            style="fill:none;stroke:#b3b3ad;stroke-width:1px;stroke-linecap:butt" />
        <path
            d="M 63.5,21 57,60"
            style="fill:none;stroke:#b3b3ad;stroke-width:1px;stroke-linecap:butt" />
        <path
            d="M 70,60 63.5,21"
            style="fill:none;stroke:#b3b3ad;stroke-width:1px;stroke-linecap:butt" />
        <path
            d="M 70,60 107,21"
            style="fill:none;stroke:#b3b3ad;stroke-width:1px;stroke-linecap:butt" />
        <path
            d="M 118,21 81.7,60"
            style="fill:none;stroke:#b3b3ad;stroke-width:1px;stroke-linecap:butt" />
        <path
            d="M 45.3,60 20,21"
            style="fill:none;stroke:#b3b3ad;stroke-width:1px;stroke-linecap:butt" />
        <path
            d="M 81.7,60 107,21"
            style="fill:none;stroke:#b3b3ad;stroke-width:1px;stroke-linecap:butt" />
    </g>
</svg>
